<svg width="24" height="24" viewBox="0 0 24 24" fill="none" xmlns="http://www.w3.org/2000/svg">
<path d="M14.8396 8.06621V7.03094C14.8396 6.94121 14.7365 6.89166 14.6669 6.94657L8.62935 11.6622C8.57805 11.7021 8.53655 11.7532 8.50799 11.8115C8.47944 11.8699 8.4646 11.934 8.4646 11.999C8.4646 12.064 8.47944 12.1281 8.50799 12.1865C8.53655 12.2449 8.57805 12.296 8.62935 12.3359L14.6669 17.0515C14.7378 17.1064 14.8396 17.0568 14.8396 16.9671V15.9318C14.8396 15.8662 14.8088 15.8033 14.7579 15.7631L9.93649 11.9997L14.7579 8.23496C14.8088 8.19478 14.8396 8.13184 14.8396 8.06621Z" fill="#D9D9D9"/>
</svg>
