<svg width="33" height="32" viewBox="0 0 33 32" fill="none" xmlns="http://www.w3.org/2000/svg">
<path d="M23.602 22.1189L18.9645 17.4814C19.6841 16.551 20.0734 15.4135 20.0734 14.2171C20.0734 12.785 19.5145 11.4421 18.5038 10.4296C17.4931 9.4171 16.1466 8.85995 14.7163 8.85995C13.2859 8.85995 11.9395 9.41888 10.9288 10.4296C9.91627 11.4403 9.35913 12.785 9.35913 14.2171C9.35913 15.6475 9.91806 16.9939 10.9288 18.0046C11.9395 19.0171 13.2841 19.5742 14.7163 19.5742C15.9127 19.5742 17.0484 19.185 17.9788 18.4671L22.6163 23.1028C22.6299 23.1164 22.646 23.1272 22.6638 23.1346C22.6816 23.1419 22.7006 23.1457 22.7198 23.1457C22.7391 23.1457 22.7581 23.1419 22.7759 23.1346C22.7937 23.1272 22.8098 23.1164 22.8234 23.1028L23.602 22.326C23.6156 22.3124 23.6264 22.2963 23.6338 22.2785C23.6411 22.2607 23.6449 22.2417 23.6449 22.2225C23.6449 22.2032 23.6411 22.1842 23.6338 22.1664C23.6264 22.1486 23.6156 22.1325 23.602 22.1189ZM17.5448 17.0457C16.7877 17.801 15.7841 18.2171 14.7163 18.2171C13.6484 18.2171 12.6448 17.801 11.8877 17.0457C11.1323 16.2885 10.7163 15.285 10.7163 14.2171C10.7163 13.1492 11.1323 12.1439 11.8877 11.3885C12.6448 10.6332 13.6484 10.2171 14.7163 10.2171C15.7841 10.2171 16.7895 10.6314 17.5448 11.3885C18.3002 12.1457 18.7163 13.1492 18.7163 14.2171C18.7163 15.285 18.3002 16.2903 17.5448 17.0457Z" fill="black" fill-opacity="0.45"/>
</svg>
